#!OML:ASF I:\Actors\actors\Patient Classification 1\Patient 1\Session 1\Subject1.ASF
:FULLY-SPECIFIED
:DEGREES
232
root 0.79997 17.6931 7.85432 9.61908 0.470785 -8.98824
lowerback -0.506385 1.15183 7.78732
upperback 0.703142 1.44333 1.3714
thorax 1.16986 0.778454 -2.92107
lowerneck -12.7292 -6.0625 -5.60583
upperneck 21.4868 -10.1054 12.0526
head 9.83655 -3.91113 3.85912
rclavicle -3.37934e-015 -4.77083e-015
rhumerus -11.3016 40.0468 -114.704
rradius 138.884
rwrist 16.2825
rhand -11.7638 -57.2054
rfingers 7.12502
rthumb 14.2846 -86.6941
lclavicle -3.37934e-015 -4.77083e-015
lhumerus -14.3241 -48.5451 111.12
lradius 133.002
lwrist 4.71568
lhand -35.6155 -25.1721
lfingers 7.12502
lthumb -8.73872 4.62699
rfemur -13.4521 20.2922 23.7721
rtibia 12.3368
rfoot -12.4871 -18.0217
rtoes -2.19373
lfemur -6.32861 -31.8898 -4.11261
ltibia 0.636566
lfoot -11.8318 40.0132
ltoes -1.21948
233
root 0.799 17.6943 7.85244 9.64957 0.398747 -8.9902
lowerback -0.424327 1.13839 7.79735
upperback 0.759098 1.4303 1.36021
thorax 1.18086 0.773885 -2.93945
lowerneck -12.8386 -6.06206 -5.66432
upperneck 21.6567 -10.1177 12.0836
head 9.92421 -3.90856 3.87914
rclavicle -1.37658e-014 1.27222e-014
rhumerus -12.9278 39.0658 -115.927
rradius 139.437
rwrist 16.2872
rhand -11.0852 -55.7111
rfingers 7.12502
rthumb 14.9384 -85.1524
lclavicle -1.37658e-014 1.27222e-014
lhumerus -14.6601 -48.7415 111.147
lradius 132.968
lwrist 4.16785
lhand -36.2679 -26.6498
lfingers 7.12502
lthumb -9.36827 3.12198
rfemur -13.5157 20.3125 23.7477
rtibia 12.3575
rfoot -12.5102 -17.9455
rtoes -1.69275
lfemur -6.39643 -31.7222 -4.08151
ltibia 0.697815
lfoot -11.785 39.9274
ltoes -1.31065
234
root 0.797875 17.6957 7.85076 9.68135 0.298023 -9.05387
lowerback -0.354324 1.13535 7.85517
upperback 0.808119 1.42979 1.35796
thorax 1.19389 0.775811 -2.97474
lowerneck -12.7093 -5.96631 -5.27204
upperneck 21.4757 -9.96276 11.7352
head 9.7775 -3.85216 3.71013
rclavicle 1.75924e-014 7.55382e-015
rhumerus -12.1731 40.0302 -115.026
rradius 139.151
rwrist 15.8197
rhand -11.4979 -56.1469
rfingers 7.12502
rthumb 14.5409 -85.6173
lclavicle 1.75924e-014 7.55382e-015
lhumerus -15.1841 -49.0467 111.292
lradius 133.092
lwrist 3.644
lhand -36.3186 -26.5687
lfingers 7.12502
lthumb -9.41727 3.20088
rfemur -13.598 20.3093 23.8153
rtibia 12.4189
rfoot -12.4361 -17.8854
rtoes -2.14344
lfemur -6.45494 -31.4699 -3.98485
ltibia 0.777735
lfoot -11.7652 39.7954
ltoes -1.52487
235
root 0.80157 17.6909 7.84579 9.57887 0.311287 -9.66281
lowerback -0.117347 1.10021 8.58857
upperback 0.873254 1.39637 1.48909
thorax 1.14085 0.764442 -3.25148
lowerneck -12.8824 -5.99993 -5.49496
upperneck 21.6775 -10.0225 11.8984
head 9.9098 -3.86791 3.79719
rclavicle -1.28216e-014 -9.14409e-015
rhumerus -12.1097 40.3896 -114.65
rradius 139.075
rwrist 15.2317
rhand -11.5712 -56.2704
rfingers 7.12502
rthumb 14.4702 -85.7459
lclavicle -1.28216e-014 -9.14409e-015
lhumerus -15.4702 -49.0924 111.119
lradius 132.977
lwrist 3.32614
lhand -36.9873 -28.2805
lfingers 7.12502
lthumb -10.0624 1.45894
rfemur -13.4917 20.2122 24.6014
rtibia 12.4911
rfoot -12.3563 -17.7257
rtoes -3.04567
lfemur -6.33788 -31.1087 -3.31084
ltibia 0.737155
lfoot -11.5622 39.5463
ltoes -1.96715
236
root 0.810086 17.6801 7.83789 9.3327 0.421238 -10.741
lowerback 0.281966 1.03957 9.92175
upperback 0.955831 1.34802 1.72846
thorax 1.0256 0.74778 -3.7507
lowerneck -12.9582 -5.95292 -5.41481
upperneck 21.8342 -9.94565 11.7184
head 9.95696 -3.83668 3.73149
rclavicle 9.74045e-015 1.74931e-014
rhumerus -12.2529 40.3757 -114.424
rradius 139.097
rwrist 14.4904
rhand -11.4042 -56.3826
rfingers 7.12502
rthumb 14.6311 -85.8464
lclavicle 9.74045e-015 1.74931e-014
lhumerus -15.6046 -49.0605 110.691
lradius 132.903
lwrist 3.1275
lhand -37.3551 -28.8652
lfingers 7.12502
lthumb -10.4172 0.856755
rfemur -13.1862 19.9956 25.9995
rtibia 12.5476
rfoot -12.3366 -17.3932
rtoes -3.38844
lfemur -6.03638 -30.624 -2.16752
ltibia 0.610562
lfoot -11.2205 39.1478
ltoes -2.58752
237
root 0.808765 17.6806 7.83862 9.3878 0.309405 -10.7748
lowerback 0.283649 1.04237 9.9147
upperback 0.968319 1.35091 1.74015
thorax 1.03762 0.749997 -3.73446
lowerneck -12.9798 -5.91346 -5.35903
upperneck 21.9845 -9.87677 11.5488
head 9.99434 -3.81245 3.67361
rclavicle -7.15625e-015 1.03368e-014
rhumerus -12.3431 40.3583 -114.127
rradius 139.107
rwrist 13.7418
rhand -11.2014 -56.5033
rfingers 7.12502
rthumb 14.8265 -85.9528
lclavicle -7.15625e-015 1.03368e-014
lhumerus -15.9257 -49.061 110.328
lradius 132.918
lwrist 3.1381
lhand -37.3035 -28.5221
lfingers 7.12502
lthumb -10.3675 1.20228
rfemur -13.2788 20.0327 26.0168
rtibia 12.597
rfoot -12.3486 -17.2791
rtoes -3.19922
lfemur -6.03767 -30.5761 -2.11596
ltibia 0.589283
lfoot -11.3375 39.217
ltoes -2.37558
238
root 0.798019 17.6921 7.84758 9.72827 -0.0197935 -9.79022
lowerback -0.01644 1.08098 8.66297
upperback 0.875934 1.38075 1.51011
thorax 1.08643 0.755082 -3.27341
lowerneck -12.9334 -5.8509 -5.3608
upperneck 22.0367 -9.79064 11.5309
head 9.99414 -3.77508 3.68167
rclavicle -6.75868e-015 -2.66371e-014
rhumerus -13.1053 40.1608 -114.249
rradius 139.077
rwrist 13.3842
rhand -10.8542 -56.1949
rfingers 7.12502
rthumb 15.1609 -85.6195
lclavicle -6.75868e-015 -2.66371e-014
lhumerus -16.3946 -48.8519 110.043
lradius 132.786
lwrist 3.65082
lhand -37.1582 -29.7669
lfingers 7.12502
lthumb -10.2273 -0.035507
rfemur -13.7616 20.3331 24.6904
rtibia 12.6713
rfoot -12.3543 -17.4493
rtoes -3.13038
lfemur -6.32848 -31.02 -3.12766
ltibia 0.66634
lfoot -11.863 39.8045
ltoes -1.48588
